<?xml version="1.0" encoding="UTF-8"?>
<svg id="Ebene_1" xmlns="http://www.w3.org/2000/svg" version="1.1" viewBox="0 0 742.79 540.6">
  <!-- Generator: Adobe Illustrator 30.0.0, SVG Export Plug-In . SVG Version: 2.1.1 Build 123)  -->
  <defs>
    <style>
      .st0, .st1, .st2, .st3, .st4, .st5, .st6, .st7, .st8, .st9, .st10, .st11 {
        stroke: #57544c;
      }

      .st0, .st1, .st2, .st12 {
        fill: #57544c;
      }

      .st0, .st8, .st9, .st13, .st10 {
        stroke-miterlimit: 10;
        stroke-width: .5px;
      }

      .st1 {
        stroke-miterlimit: 10;
        stroke-width: .5px;
      }

      .st2 {
        stroke-miterlimit: 10;
        stroke-width: .5px;
      }

      .st3, .st4, .st5, .st6, .st7, .st8, .st13 {
        fill: none;
      }

      .st3, .st11 {
        stroke-miterlimit: 10;
        stroke-width: .5px;
      }

      .st4 {
        stroke-miterlimit: 10;
        stroke-width: .5px;
      }

      .st5 {
        stroke-miterlimit: 10;
        stroke-width: .5px;
      }

      .st6 {
        stroke-miterlimit: 10;
        stroke-width: .5px;
      }

      .st7 {
        stroke-miterlimit: 10;
        stroke-width: .5px;
      }

      .st9 {
        fill: #d44d3b;
      }

      .st13 {
        stroke: #d34436;
      }

      .st10 {
        fill: #db6a4c;
      }

      .st11 {
        fill: #d34436;
      }
    </style>
  </defs>
  <path class="st8" d="M139.01,390.17s-.83,1.64-1.9,1.88l-41.11-.93s-.96-.15-.9-1.54"/>
  <path class="st8" d="M94.04,325.77s1.04,1.4,1.15,3.1v60.17s-.42,3.4-1.46,4.59"/>
  <path class="st0" d="M399.67,470.83s-.97,3.67-1.56,4.02c0,0-.62.37-.71-.57,0,0,1.24-3.58,1.27-4.06"/>
  <path class="st0" d="M402.25,472.13s-.96,3.65-1.55,3.99c0,0-.62.37-.71-.57,0,0,1.23-3.56,1.27-4.04"/>
  <path class="st0" d="M405.06,473.48s-.95,3.62-1.54,3.96c0,0-.61.36-.72-.57,0,0,1.22-3.53,1.26-4.01"/>
  <path class="st0" d="M407.66,474.71s-.95,3.62-1.54,3.96c0,0-.61.36-.72-.57,0,0,1.22-3.53,1.26-4.01"/>
  <path class="st0" d="M410.31,475.73s-1.01,3.76-1.6,4.12c0,0-.62.38-.71-.58,0,0,1.27-3.67,1.31-4.17"/>
  <path class="st0" d="M398.95,484.66s2.24-3.12,2.57-4.01-.14-.69-.14-.69c0,0-.37.34-.69.88,0,0-2.16,3.22-2.49,3.37"/>
  <path class="st0" d="M396.16,483.18s2.24-3.12,2.57-4.01-.14-.69-.14-.69c0,0-.37.34-.69.88,0,0-2.16,3.22-2.49,3.37"/>
  <path class="st0" d="M393.45,481.82s2.24-3.12,2.57-4.01-.14-.69-.14-.69c0,0-.37.34-.69.88,0,0-2.16,3.22-2.49,3.37"/>
  <path class="st0" d="M401.88,486.21s2.2-3.15,2.52-4.04-.15-.69-.15-.69c0,0-.37.34-.68.89,0,0-2.12,3.24-2.45,3.39"/>
  <path class="st0" d="M404.65,487.39s2.24-3.12,2.57-4.01-.14-.69-.14-.69c0,0-.37.34-.69.88,0,0-2.16,3.22-2.49,3.37"/>
  <path class="st8" d="M724.82,77.74l-9.53,34.37s-.28.89-.2,1.67l-4.17-.96s-11.08-2.27-14.44-4.06l-3.75-1.01s-.7-.16-.62-1.17l3.98-14.21,2.19-7.26,3.9-12.73s.39-1.71,1.88-1.48l3.28,1.09s5.7,1.17,13.74,3.98l3.75,1.77h0Z"/>
  <path class="st8" d="M721.42,76.13s-2.5.67-3.42.26l-8.5-2.55s-1.41-.79-2.16-1.86"/>
  <path class="st8" d="M710.93,112.81s-1.06-2.43-1.99-2.75l-8.67-2.69s-3.09-.51-3.8,1.38"/>
  <path class="st8" d="M698,86.02l-8.54-2.68s-.47-.14-.74.52c0,0-1.31,2.13-1.37,4.35v.47"/>
  <path class="st8" d="M696.17,92.16l-8.5-2.82s-.4-.37-.37-1.05c0,0,0-.16.09-.69"/>
  <path class="st10" d="M696.53,85.57l-.54,1.75s.03.3.19.07l.56-1.75-.21-.07h0Z"/>
  <path class="st8" d="M694.89,85.05l-.58,1.75s.03.3.19.07l.59-1.76-.21-.07h0Z"/>
  <path class="st8" d="M693.38,84.58l-.53,1.66s.03.3.19.07l.54-1.67-.21-.07h0Z"/>
  <path class="st8" d="M691.87,84.12l-.55,1.62s.03.3.19.07l.56-1.63-.21-.07h0Z"/>
  <path class="st8" d="M690.39,83.65l-.56,1.6s.03.3.19.07l.57-1.61-.21-.07h0Z"/>
  <path class="st8" d="M694.76,91.68l.83-2.27c.05-.18,0-.48-.24-.05l-.8,2.24.21.07h0Z"/>
  <path class="st8" d="M693.13,91.14l.83-2.27c.05-.18,0-.48-.24-.05l-.8,2.24.21.07h0Z"/>
  <path class="st8" d="M691.76,90.69l.83-2.27c.05-.18,0-.48-.24-.05l-.8,2.24.21.07h0Z"/>
  <path class="st8" d="M690.2,90.17l.83-2.27c.05-.18,0-.48-.24-.05l-.8,2.24.21.07h0Z"/>
  <path class="st8" d="M688.69,89.67l.83-2.27c.05-.18,0-.48-.24-.05l-.8,2.24.21.07h0Z"/>
  <path class="st8" d="M716.31,111.37s-.65,2.54-1,2.46"/>
  <path class="st8" d="M724.82,80.39s.71-2.32.17-2.58"/>
  <path class="st8" d="M724.15,80.17l4.7,1.65.35-.89s.13-.24.36.1l.69,1.29,1.81.57s.45.29.36.84l-8.05,28.86s-.55.77-1.65.48l-1.3-.26-1.39.6s-.42.15-.29-.6l.17-.62-4.29-1.2"/>
  <line class="st8" x1="729.56" y1="87.7" x2="725.85" y2="86.68"/>
  <line class="st8" x1="729.08" y1="89.5" x2="725.35" y2="88.48"/>
  <line class="st8" x1="724.48" y1="105.35" x2="720.77" y2="104.33"/>
  <line class="st8" x1="724.02" y1="107.09" x2="720.3" y2="106.08"/>
  <line class="st8" x1="724.93" y1="110.6" x2="716.61" y2="108.27"/>
  <line class="st8" x1="723.46" y1="82.64" x2="732.03" y2="85.13"/>
  <line class="st8" x1="732.26" y1="84.33" x2="723.68" y2="81.83"/>
  <line class="st8" x1="724.48" y1="111.41" x2="716.24" y2="109"/>
  <rect class="st11" x="731.24" y="86.49" width=".36" height=".69" transform="translate(451.09 767.96) rotate(-74.4)"/>
  <rect class="st11" x="725.01" y="108.47" width=".36" height=".69" transform="translate(425.37 778.03) rotate(-74.4)"/>
  <path class="st0" d="M732.3,85.28l-7.1,25.32s.75-.22.95-.84l6.48-23.42s.11-.64-.33-1.07h0Z"/>
  <path class="st8" d="M338.5,349.5s-4.2,2.9-6.64,1.4c0,0-1.03.84-.93,1.4s2.34,8.89,2.34,8.89c0,0,5.05,2.8,8.32-1.97l-2.15-8.89s-.07-.49-.93-.84h0Z"/>
  <path class="st8" d="M333.27,361.2s-6.15,1.18-5.32,6.2l5.84,21.9s.38.76,1.84.45l18.78-5.33s1.21-.3,1.03-.91l-5.88-20.88s-1.11-5.46-7.58-3.81"/>
  <path class="st8" d="M341.3,358.06h0c-.07.18,5.94-2.36,8.95,1.4l5.99,21.18s-.16,3.56-.92,3.27"/>
  <path class="st8" d="M336.51,389.48l4.55,15.63c.2.78,1.74.41,1.74.41l14.7-4.24c1.16-.41.54-1.53.54-1.53l-4.33-15.15"/>
  <path class="st8" d="M354.97,384.17l3.85,14.22s.13,1.36-.62,2.57"/>
  <rect class="st7" x="350.31" y="392.32" width="3.02" height="2.55" rx=".42" ry=".42" transform="translate(-100.51 121.4) rotate(-17.17)"/>
  <path class="st8" d="M345.5,390.04l.53-.17c.25-.08,1.03-.36,1.1-.15l.1.32c.07.21-.06.44-.26.51l-1.03.32c-.21.07-.44-.06-.51-.26l-.1-.32c-.07-.21,0-.19.18-.25h0Z"/>
  <rect class="st7" x="341.65" y="394.77" width="3.02" height="2.55" rx=".42" ry=".42" transform="translate(-101.62 118.95) rotate(-17.17)"/>
  <line class="st8" x1="352.09" y1="392.46" x2="352.66" y2="394.44"/>
  <line class="st8" x1="351.46" y1="392.65" x2="352.02" y2="394.64"/>
  <line class="st8" x1="343.44" y1="394.9" x2="344.01" y2="396.87"/>
  <line class="st8" x1="342.81" y1="395.09" x2="343.37" y2="397.08"/>
  <path class="st8" d="M247.72,180.67c0-1.06.03-1.99.07-2.77.17-3.38.54-11.29,4.38-20.44,2-4.77,4.48-10.71,10.49-16.07,6.12-5.46,12.76-7.65,17.25-8.53,7.81-1.52,13.94.05,19.87,1.56,4.6,1.18,16.72,4.94,29.87,14.53,4.23,3.09,13.06,9.52,20.81,20.63,2.3,3.3,2.81,4.6,3.84,7.22,1.12,2.83,2.98,7.57,8.78,18.95l.2.41c2.37,4.66,4.62,9.07,4.81,15.41.11,3.66-.55,6.19-1.39,9.39-.24.91-.51,1.92-.77,3.04-1.39,5.8-1.68,9.44-2.05,14.05-.16,1.98-.32,4.02-.59,6.45-.87,7.9-1.94,11.79-3.41,17.17-1.23,4.49-2.75,10.07-4.68,20.06-4.7,24.37-3.55,32.55-3.06,36.05.78,5.57,2.23,11.04,4.3,16.26,1.7,4.29,3.63,9.16,7.94,14.25,2.6,3.08,5.83,6.9,11.49,9.04,4.67,1.77,8.72,1.59,10.25,1.42,6.42-.68,11.03-4.45,16.38-9.3,11.63-10.57,17.47-15.86,24.32-25.25,5-6.85,11.22-15.36,16.08-28.35,4.85-12.95,7.07-25.82,6.6-38.24-.16-4.12-.68-9.97-1.34-17.38-.24-2.72-.46-4.95-.65-6.96-.46-4.8-.8-8.26-1.08-13.87-.26-5.14-.35-9.36-.39-11.4-.15-7.61-.22-11.44,0-13.51.52-4.54,1.72-15.15,9.73-21.65,2.13-1.72,4.6-2.72,9.53-4.71,5.34-2.15,10.8-3.76,16.68-4.9,11.64-2.27,17.47-3.41,23.84-1.28,8.8,2.93,13.72,9.46,15.43,12.14,3.67,5.73,4.14,11.13,4.9,20.09.46,5.29.28,8.15.1,11.17-.17,2.76-.34,5.63-.1,10.8.48,9.84,1.98,17.36,2.83,20.97.69,2.94,2.76,10.78,6.99,20.2,3.64,8.12,5.46,12.18,9.49,16.81,4.86,5.57,9.72,8.36,14.87,11.31,3.71,2.12,11.41,6.54,22.44,8.61,11.59,2.17,20.93.73,24.41,0,11.32-2.36,18.78-7.32,22.36-9.7,4.54-3.02,12.15-8.08,18.26-17.85,3.08-4.92,6.96-13.03,7.97-23.74.68-7.19,1.95-20.58-6.47-30.65-5.47-6.55-13.03-9.2-18.55-11.12-4.97-1.74-9.73-2.41-19.22-3.75-5.53-.78-8.41-1.01-10.96-1.23-2.06-.17-3.84-.31-6.53-.7-5.83-.84-17.52-3.14-30.32-9.2-4.39-2.07-14.66-6.93-25.07-16.46-13.61-12.46-19.78-25.76-25.24-37.5-4.63-9.98-8.33-21.08-10.71-32.11-2.55-11.87-4.4-20.46-2.51-31.66,1.7-10.11,5.53-17.28,9.23-24.22,4.86-9.1,8.36-15.67,15.83-21.9,5.1-4.25,15.84-11.45,30.57-11.98,7.45-.26,17.05,2.19,27.03,6.91,10.22,4.84,15.2,9.3,24.25,17.43,4.49,4.02,10.06,9.03,17.84,15.48,14.95,12.41,22,18.11,32.48,23.39,9.67,4.87,20.1,8.36,30.99,10.39l-1.05,3.73c-11.25-2.09-21.68-5.61-31.69-10.64-11.32-5.69-19.09-12.15-33.22-23.87-7.83-6.5-13.45-11.54-17.96-15.58-9.07-8.14-13.62-12.22-23.32-16.81-9.42-4.46-18.38-6.78-25.23-6.54-13.57.48-23.49,7.14-28.21,11.08-6.89,5.74-10.07,11.71-14.9,20.74-3.55,6.66-7.23,13.55-8.83,23.04-1.76,10.46-.07,18.32,2.48,30.2,2.31,10.75,5.92,21.57,10.42,31.29,5.29,11.41,11.3,24.33,24.33,36.26,9.98,9.14,19.87,13.81,24.11,15.81,12.35,5.84,23.61,8.06,29.22,8.87,2.58.37,4.3.51,6.3.67,2.6.21,5.54.45,11.18,1.25,9.74,1.37,14.63,2.06,19.96,3.93,5.95,2.08,14.09,4.93,20.25,12.31,9.46,11.31,8.09,25.75,7.36,33.51-1.08,11.46-5.25,20.15-8.54,25.44-6.56,10.48-14.6,15.83-19.4,19.03-3.49,2.33-11.68,7.77-23.74,10.28-3.71.77-13.64,2.31-25.92,0-11.68-2.19-19.78-6.83-23.66-9.06-5.21-2.98-10.58-6.06-15.86-12.13-4.41-5.05-6.43-9.57-10.1-17.77-4.2-9.38-6.34-17.13-7.23-20.9-.89-3.74-2.44-11.52-2.93-21.67-.26-5.38-.07-8.49.1-11.22.18-3,.34-5.6-.09-10.6-.81-9.29-1.29-13.61-4.31-18.33-1.16-1.81-5.55-7.92-13.38-10.54-5.4-1.8-10.91-.73-21.87,1.41-5.64,1.1-10.87,2.64-15.97,4.7-4.56,1.84-6.85,2.76-8.53,4.13-6.78,5.5-7.86,15.01-8.32,19.06-.2,1.82-.13,5.79,0,12.99.04,2.01.12,6.2.38,11.27.28,5.51.61,8.94,1.07,13.69.19,2.01.41,4.26.65,6.98.66,7.46,1.2,13.36,1.35,17.58.49,12.94-1.82,26.32-6.84,39.75-5.05,13.49-11.44,22.24-16.57,29.27-7.09,9.72-13.03,15.1-24.85,25.84-5.69,5.17-11.01,9.5-18.6,10.31-1.8.19-6.59.41-12.04-1.65-6.61-2.5-10.35-6.93-13.09-10.17-4.72-5.59-6.86-10.99-8.58-15.33-2.19-5.52-3.72-11.29-4.54-17.16-.81-5.74-1.18-15.17,3.09-37.32,1.96-10.14,3.5-15.8,4.75-20.35,1.43-5.21,2.45-8.97,3.29-16.56.26-2.37.43-4.39.58-6.34.37-4.59.69-8.55,2.15-14.65.27-1.15.54-2.17.79-3.11.82-3.11,1.35-5.18,1.27-8.28-.16-5.46-2.11-9.3-4.38-13.75l-.2-.41c-5.88-11.54-7.8-16.39-8.93-19.29-1-2.55-1.38-3.49-3.42-6.41-7.38-10.57-15.53-16.52-19.91-19.71-12.6-9.19-24.15-12.78-28.53-13.9-5.77-1.47-11.22-2.86-18.16-1.51-4.01.78-9.95,2.73-15.41,7.61-5.35,4.78-7.55,10.03-9.49,14.67-3.56,8.53-3.91,15.69-4.08,19.13-.19,3.99-.09,12.11,2.8,21.62,2.09,6.9,5.45,13.67,9.7,19.6,4,5.57,8.34,9.37,16.98,16.95,5.31,4.66,8.45,7.07,10.97,8.99,2.98,2.29,4.94,3.8,8.19,7.28,6.87,7.37,10.61,14.06,13.91,19.97,7.04,12.58,10.19,23.17,12.27,30.17,1.96,6.58,3.44,13.74,6.38,28.02,1.35,6.58,2.65,13.19,4.15,19.57l-3.82.71c-1.49-6.36-2.78-12.94-4.14-19.5-2.92-14.17-4.39-21.27-6.3-27.69-2.03-6.84-5.11-17.17-11.93-29.38-3.19-5.71-6.81-12.19-13.36-19.21-3.04-3.25-4.8-4.6-7.72-6.85-2.42-1.86-5.75-4.41-11.15-9.15-8.88-7.79-13.32-11.69-17.59-17.61-4.51-6.27-8.06-13.44-10.27-20.74-2.49-8.22-3.03-15.47-3.03-20.17l.02-.05Z"/>
  <path class="st8" d="M153.28,75.68s2,.66,2-1.77l-3.1-38.62s-.45-2.44-1.77-2.22l-39.73,2.73s-10.65,2.36-8.13,13.16c0,0,.18.34.42.95,1.06,2.59,3.54,9.95.31,16.05,0,0-2.22,12.42,9.75,13.01l40.25-3.29h0Z"/>
  <rect class="st4" x="166.02" y="42.06" width="5.26" height="6.32" rx="1.53" ry="1.53" transform="translate(-3.22 14.42) rotate(-4.85)"/>
  <rect class="st4" x="167.43" y="58.57" width="5.26" height="6.32" rx="1.53" ry="1.53" transform="translate(-4.61 14.6) rotate(-4.85)"/>
  <path class="st8" d="M160.37,55.82l-.11-1.26c-.07-.85-.13-1.9-.1-2.22.02-.22.08-.31.16-.32l.5-.04c.33-.03.63.37.68.88l.21,2.47c.04.52-.18.95-.52.98l-.5.04c-.33.03-.29-.12-.32-.53h0Z"/>
  <line class="st8" x1="172.11" y1="60.59" x2="167.85" y2="60.98"/>
  <line class="st8" x1="172.21" y1="61.72" x2="167.95" y2="62.16"/>
  <line class="st8" x1="170.69" y1="43.81" x2="166.43" y2="44.2"/>
  <line class="st8" x1="170.79" y1="44.94" x2="166.53" y2="45.37"/>
  <path class="st8" d="M153.05,40.2l30.78-2.51s.9.12.87.57"/>
  <path class="st8" d="M152.89,38.43l31.31-2.54s.74.35.82,1.28l2.22,28.67s-.06,2.64-1.37,2.87l-31.01,2.74"/>
  <path class="st8" d="M154.03,72.29l-38.67,2.57s-3.89.14-4.55-4.09-1.84-25.97-1.84-25.97c0,0-.95-5.11,1.69-5.86"/>
  <path class="st8" d="M102.97,49.92l-16.97,1.02s-2.22.21-1.44,4.16c0,0,1.44,5.53.53,8.31,0,0-1.34,4.19,2.5,3.59l15.66-.74"/>
  <path class="st8" d="M18.88,55.53c5.33-.56,9.66-.65,12.59-.63,4.26.02,8.08.3,15.72.85,6.39.46,7.58.65,10.94.63,2.51,0,4.86-.16,9.56-.43,3.37-.19,4.67-.32,8.5-.54,2.81-.16,6.58-.48,8.06-.54"/>
  <path class="st8" d="M18.88,63.56c5.33-.56,10.39-.76,13.31-.74,4.26.02,8.08.3,15.72.85,6.39.46,7.58.65,10.94.63,2.51,0,4.86-.16,9.56-.43,3.37-.19,4.67-.32,8.5-.54,2.81-.16,6.58-.48,8.06-.54"/>
  <path class="st8" d="M86.07,52.39s2.2,7.73.95,11.91c0,0-.56.97.12,1.43l14.75-.79"/>
  <path class="st8" d="M169.69,248.02l4.86.54c4.18.49,3.9-2.22,3.9-2.22v-1.25l.87-1.48,6.49-59.91c.46-5.58-2.28-6.03-2.28-6.03l-41.13-4.43s-1.36.41-2.31,1.57c-1.05,1.29,0,0,0,0"/>
  <path class="st8" d="M170.02,248.05s-1.76-3.56-4.35-3.99l-15.68-1.86s-2.61-.22-4.66.95l-2.92,1.61"/>
  <path class="st8" d="M132.34,240.65s1.71,3.84,2.67-1.94c0,0,1.84-10.35,1.71-12.45l2.24-25.26,2.22-20.71-.05-2.63s.16-4.63-1.68-2.09c0,0-.83.76-1.53,3.3l-1.59,11.76-.76,11.18"/>
  <path class="st8" d="M185.7,184.79l6.22.49v-1.47s.41-1.14.98-.41l1.63,2.21,3.68.41s.9.33.82,1.63-.33,5.15-.33,5.15c0,0-1.63.74-.17,1.63l-4.17,41.16s-1.63.82-.17,1.8l-.49,4.82s0,2.2-2.45,2.12h-2.77l-2.12,1.71s-1.23.39-1.14-.91v-1.29l-5.86-.59"/>
  <line class="st8" x1="196.03" y1="195.97" x2="188.92" y2="195.47"/>
  <line class="st8" x1="195.63" y1="199.39" x2="188.51" y2="198.89"/>
  <line class="st8" x1="192.28" y1="230.19" x2="185.16" y2="229.69"/>
  <line class="st8" x1="191.87" y1="233.61" x2="184.76" y2="233.1"/>
  <path class="st8" d="M142.04,175.51s-.16-1.02.82-1.13,41.16,4.45,41.16,4.45c0,0,1.16.81,1.15,2.1"/>
  <path class="st0" d="M134.49,214.65s.75-3.78.68-4.71-.41-.57-.41-.57c0,0-.19.46-.27,1.08,0,0-.64,3.82-.88,4.09l.88.11h0Z"/>
  <path class="st0" d="M131.41,214.28s.91-3.74.88-4.68-.39-.59-.39-.59c0,0-.21.46-.31,1.07,0,0-.8,3.8-1.05,4.05l.88.15h0Z"/>
  <path class="st0" d="M128.35,213.85s.91-3.74.88-4.68-.39-.59-.39-.59c0,0-.21.46-.31,1.07,0,0-.8,3.8-1.05,4.05l.88.15h0Z"/>
  <path class="st0" d="M125.27,213.39s.91-3.74.88-4.68-.39-.59-.39-.59c0,0-.21.46-.31,1.07,0,0-.8,3.8-1.05,4.05l.88.15h0Z"/>
  <path class="st0" d="M122.38,212.72s.91-3.74.88-4.68-.39-.59-.39-.59c0,0-.21.46-.31,1.07,0,0-.8,3.8-1.05,4.05l.88.15h0Z"/>
  <path class="st8" d="M135.21,202.06s2.87.14,2.94,1.42v4.89s-.8,6.26-2.03,6.3h-1.67l-1.44,12.92c-.24,1.93-.65,13.07-.65,13.07.24,3.09,1.52,3.35,1.52,3.35l8.28,1.13,3.97.48,20.6,2.36c1.27.22,2.98.05,2.98.05"/>
  <path class="st8" d="M134.43,214.65s-9.3-.68-15.59-2.62c0,0-.81-.8-1.07-2.21,0,0,.9.73,1.25-.2.42-1.14,1.72-4.66.76-8.29l-.69-.14s.45-1.52,1.56-1.25l15.12,2.16"/>
  <path class="st8" d="M119.08,201.19l-54.31-8.11s-4.57-.12-20.85-5.65c0,0-15.71-4.74-25.04-12.11"/>
  <path class="st8" d="M117.77,209.82l-43.91-6.4s-18.22-2.97-22.28-4.46c0,0-18.91-5.94-23.71-8.62,0,0-7.86-4.06-8.98-5.08"/>
  <line class="st8" x1="198.74" y1="191.2" x2="188.15" y2="190.39"/>
  <line class="st8" x1="194.06" y1="238.87" x2="183.57" y2="237.62"/>
  <line class="st8" x1="198.91" y1="188.62" x2="185.24" y2="187.24"/>
  <line class="st8" x1="193.52" y1="241.69" x2="179.86" y2="240.3"/>
  <path class="st8" d="M136.34,236.46s-.18,2.44.58,2.54l40.75,5.22"/>
  <line class="st8" x1="185.99" y1="67.09" x2="156.04" y2="69.54"/>
  <path class="st0" d="M123.85,200.82s.48,3.38.06,3.86c0,0-.44.52-.88-.23,0,0-.19-3.4-.34-3.81l1.16.18h0Z"/>
  <path class="st0" d="M126.77,201.26s.48,3.38.06,3.86c0,0-.44.52-.88-.23,0,0-.19-3.4-.34-3.81l1.16.18h0Z"/>
  <path class="st0" d="M129.86,201.67s.48,3.38.06,3.86c0,0-.44.52-.88-.23,0,0-.19-3.4-.34-3.81l1.16.18h0Z"/>
  <path class="st0" d="M132.81,202.09s.48,3.38.06,3.86c0,0-.44.52-.88-.23,0,0-.19-3.4-.34-3.81l1.16.18h0Z"/>
  <path class="st0" d="M135.9,202.55s.48,3.38.06,3.86c0,0-.44.52-.88-.23,0,0-.19-3.4-.34-3.81l1.16.18h0Z"/>
  <path class="st8" d="M432.82,532.24s3.53-4.81,3.73-5.7l26.41-49.14s2.41-5.19.88-5.96l-36.8-19.63s-1.42-.93-2.9,1.36c0,0-13.28,22.14-13.45,22.74,0,0,1.37.79,1.03,2.02l-5.08,9.4s-.43.76-1.99.07l-11.89,23.12s-1.21,2.57,1.31,4.32l6.07,3.28-.14.44,23.59,12.92.49-.32,5.27,3.14s1.81,1.13,2.24-.24l1.22-1.85h0Z"/>
  <path class="st9" d="M458.32,468.5s-1.39.67-2.39.67c0,0,1.92-.64,1.98-.9l.42.22Z"/>
  <path class="st9" d="M434.75,455.93s.33,1.56.84,2.36c0,0-1.28-1.57-1.56-2.73l.72.38h0Z"/>
  <path class="st9" d="M393.71,514.57s2.19-1.59,3.57-2.07c0,0-3.03,2.16-3.05,2.44l-.53-.37Z"/>
  <polygon class="st9" points="447.87 467.35 447.81 467.57 447.56 467.57 447.56 467.38 447.71 467.31 447.87 467.35"/>
  <polygon class="st9" points="447.36 467.24 447.36 467.35 447.22 467.35 447.19 467.18 447.19 467.08 447.16 467 447.27 466.93 447.36 467.24"/>
  <polygon class="st9" points="446.97 467.25 446.97 467.38 446.64 467.38 446.64 467.22 446.54 467.18 446.54 467.01 446.54 466.86 446.66 466.93 446.69 467.07 446.97 467.25"/>
  <polygon class="st9" points="446.36 466.65 446.4 466.9 446.36 467.23 446.08 467.2 446.08 466.97 445.84 466.92 445.86 466.59 446 466.55 446.01 466.77 446.19 466.77 446.36 466.65"/>
  <polygon class="st9" points="445.55 466.45 445.55 466.77 445.41 466.83 445.24 466.64 445.24 466.34 445.38 466.45 445.4 466.5 445.55 466.45"/>
  <polygon class="st9" points="445.08 466.21 444.88 466.19 444.88 466.51 444.76 466.51 444.72 466.65 444.79 466.75 444.95 466.73 445.03 466.61 445.06 466.42 445.08 466.21"/>
  <polygon class="st9" points="444.72 466.11 444.72 466.32 444.66 466.32 444.66 466.13 444.69 466.05 444.72 466.11"/>
  <polygon class="st9" points="444.46 466.16 444.41 466.32 444.31 466.32 444.29 466.16 444.26 466.05 443.88 466.03 444.09 465.95 444.23 465.95 444.41 466.01 444.46 466.16"/>
  <path class="st8" d="M425.43,452.53s.4,0-1.06,3.24l-28.1,52.57-.48.89s-1.72,2.26-2.74,2.85"/>
  <path class="st8" d="M396.27,508.33s-.32.59.42,1.24l35.51,19.75s1.27.48,2.14,0"/>
  <path class="st8" d="M400.15,518.13s5.35-1.05,7.11,0l13.83,7.63s3.55,3.02,3,5.41"/>
  <path class="st8" d="M462.96,477.4l6.21,3.53.58-1.1s.7-.35.92.35l.87,2.49,2.72,1.51s1.22.75.53,1.92l-1.45,2.72h-.98l.58.87-.87,1.51s-1.8-.18-.64,1.16l-19.55,36.43s-2.37-.23-1.04,1.68l-.81,1.57h-1.1l.47.92-1.52,2.49s-.32.92-2.47,0l-1.81-.98-1.57.28s-1.04.36-.81-.4l.53-.92-7.18-3.63"/>
  <line class="st8" x1="460.73" y1="493.19" x2="467.54" y2="496.59"/>
  <line class="st8" x1="445.84" y1="520.05" x2="452.65" y2="523.44"/>
  <line class="st8" x1="444.21" y1="523.14" x2="451.01" y2="526.52"/>
  <line class="st8" x1="462.32" y1="490.41" x2="469.13" y2="493.79"/>
  <line class="st8" x1="474.37" y1="485.87" x2="461.96" y2="479.27"/>
  <line class="st8" x1="447.95" y1="534.24" x2="435.71" y2="527.86"/>
  <line class="st8" x1="471.88" y1="488.56" x2="464.11" y2="484.35"/>
  <line class="st8" x1="448.9" y1="531.73" x2="441.95" y2="527.69"/>
  <path class="st8" d="M410.7,475.93s-13.51-6.34-14.02-6.41c0,0-.95-.47-1.92.93,0,0,.77.82-.95,3.97,0,0-1.56,3.45-3.01,3.55l-.38.98s-.36.98.74,1.51c0,0,13.85,7.45,14.42,7.28"/>
  <path class="st8" d="M394.76,470.45s-30.85-13.51-34.32-16.37c0,0-17.14-8.8-21.15-9.88v8.88s26.25,12.58,26.7,13.43c0,0,23.36,11.5,24.8,11.46"/>
  <path class="st8" d="M145.32,456.04l31-.28s1,.06,1.06.98l.49,30.55s-.02,1.78-1.27,1.58l-30.91.59"/>
  <path class="st8" d="M177.62,472.64l-4.28.03s-1.23.1-.72-1.44c0,0,1.04-1.38-.18-1.97l-4.18.14s-1.36.54-.34,1.71c0,0,1.19,1.54-.1,1.71l-15.47.06s-1.32-.12-.47-1.54c0,0,.97-1.01-.26-1.84l-3.77.02s-1.56.08-1.03,1.29l.24.48s.88,1.19-.13,1.62l-1.42.07"/>
  <line class="st8" x1="176.92" y1="457.9" x2="144.91" y2="458.37"/>
  <path class="st8" d="M163.38,467.3s-.17.25-.47.27l-4.39.12s-.28,0-.44-.25l-.1-5.35s.09-.48.35-.49"/>
  <path class="st8" d="M163.53,484.06s-.17.25-.47.27l-4.39.06s-.24,0-.44-.2l-.11-5.7s.1-.57.35-.59"/>
  <path class="st8" d="M157.59,467.75l-.06-5.46c0-.47.37-.86.85-.86l4.19-.05c.47,0,.86.37.86.85l.06,5.03v.43c0,.47-.37.86-.84.86l-4.19.05c-.47,0-.86-.37-.86-.85h0Z"/>
  <rect class="st5" x="157.74" y="477.76" width="5.9" height="7.16" rx=".88" ry=".88" transform="translate(-5.12 1.74) rotate(-.61)"/>
  <path class="st8" d="M144.91,454.2l.6,36.08s.09,3.95-2.14,3.88l-38.37.57s-12.51.21-12.44-13.36"/>
  <path class="st8" d="M144.91,454.97s.09-3.95-2.14-3.88l-38.28.45s-12-.57-11.93,13.01"/>
  <path class="st8" d="M143.82,491.52l-40.32-.05s-4.57-.55-4.9-5.3l-1-25.83s.67-5.82,4.82-6.89"/>
  <path class="st8" d="M76.12,469.15c-.08-.11-.16-.21-.23-.33,0,0,.04-3.5,2.22-3.56l15.62-.41s4.4,8.56.44,16.21l-15.1.63s-3.18.18-3.58-4.15"/>
  <path class="st8" d="M10.29,483.06l1.48-8.63c6.52,1.12,12.94-.32,13.01-.33h0c5.73-.89,12.03-5.16,50.95-5.08,1.93,0,2.02,8.51-.25,8.33-16.96-1.32-44.5,4.44-48.25,5.16l-.05.02-.43.1c-.33.08-8.16,1.86-16.47.43h0ZM27.57,482.35l-.11.05s.08-.03.11-.05Z"/>
  <path class="st8" d="M139.18,361.66l.46-31.15,7.05.08v-1.36c.34-.6,1.06-.18,1.06-.18l1.86,2h3.32c1.09.18,1.11,1.7,1.11,1.7v2.76c-1.02.64,0,1.18,0,1.18v1.56c-2.5.68,0,1.44,0,1.44l-.27,22.43"/>
  <path class="st8" d="M139.18,361.66l-.18,28.51,7.05.17-.05,1.36c.32.61,1.05.22,1.05.22l1.93-1.95,3.32.12c1.09-.16,1.17-1.66,1.17-1.66l.1-2.76c-1-.68.04-1.18.04-1.18l.05-1.55c-2.47-.77.05-1.44.05-1.44l.05-19.41"/>
  <path class="st8" d="M139.18,389.85c-.64.03.27,5.61-1.7,6.29l-7.26-.19s-1.92-2.76-3.09-3.26l-19.7-.11s-.67.31-1.83,1.57c0,0-1.82,1.17-1.99,1.24-.26.12-8.15,0-8.15,0,0,0-1.49.04-1.77-2.01,0,0-.67-2.27-1.45-10.52l-.32-16.53s1.82.02,2.23-.88c0,0,.46-3.32.49-5.44,0,0-.04-4.92-.29-5.59,0,0-.05-1.09-2.22-.9l.32-16.53c.78-8.25,1.45-10.52,1.45-10.52.28-2.05,1.77-2.01,1.77-2.01,0,0,7.86-.07,8.15,0s1.99,1.24,1.99,1.24c1.27,1.06,2.16,1.13,2.16,1.13l20.36-.11c.85-.07,2.31-1.84,2.31-1.84l6.72-.18c2.16-.28,2.3,5.82,2.3,5.82"/>
  <path class="st8" d="M130.61,324.87s-.45-.53-.83-.46l-24.6-.26-1.37.29"/>
  <polyline class="st8" points="129.95 395.93 128.7 396.12 104.33 396.12 103.35 395.38"/>
  <line class="st8" x1="151.87" y1="341.73" x2="144.74" y2="341.73"/>
  <line class="st8" x1="151.81" y1="345.18" x2="144.68" y2="345.17"/>
  <line class="st8" x1="151.9" y1="376.14" x2="144.77" y2="376.13"/>
  <line class="st8" x1="151.72" y1="379.59" x2="144.6" y2="379.58"/>
  <line class="st8" x1="152.97" y1="385.2" x2="144.11" y2="385.06"/>
  <line class="st8" x1="153.28" y1="387.71" x2="139.01" y2="387.74"/>
  <line class="st8" x1="153.38" y1="336.08" x2="144.52" y2="336.16"/>
  <line class="st8" x1="153.79" y1="332.65" x2="139.8" y2="332.52"/>
  <path class="st8" d="M92.12,353.52l-.76.2s-1.25-.19-1.77,0-1.61.12-1.61.12h-1.66l-1.47.11-1.51.08-1.74.14-1.28.09h-3.17s-1.11.09-1.12,1.59c0,0,2.76,5.34-.37,8.74"/>
  <path class="st8" d="M75.64,364.57c.13,1.49.83,1.94.83,1.94l2.11.08,1.59-.12h3.04l1.52-.04,1.47-.02,1.65-.12s1.07-.16,1.61,0,1.76-.14,1.76-.14l.78.15"/>
  <line class="st8" x1="16.39" y1="358.43" x2="76.25" y2="356.37"/>
  <line class="st8" x1="17.65" y1="366.53" x2="75.88" y2="364.52"/>
  <path class="st8" d="M79.14,354.45s.28,4.12.55,4.24c-.14-.23.32.79.96.11,0,0,.05-.05.11-.27l-.29-4.3"/>
  <path class="st8" d="M80.54,366.34s.39-4.11.14-4.27c.1.25-.19-.84-.92-.26,0,0-.05.04-.15.25l-.41,4.29"/>
  <path class="st8" d="M83.8,366.34s.39-4.11.14-4.27c.1.25-.19-.84-.92-.26,0,0-.05.04-.15.25l-.41,4.29"/>
  <path class="st8" d="M86.81,366.34s.39-4.11.14-4.27c.1.25-.19-.84-.92-.26,0,0-.05.04-.15.25l-.41,4.29"/>
  <path class="st8" d="M90.01,366.23s.42-4.28.17-4.45c.1.25-.19-.84-.92-.26,0,0-.05.04-.15.25l-.41,4.29"/>
  <path class="st8" d="M92.75,366.05s.39-4.11.14-4.27c.1.25-.19-.84-.92-.26,0,0-.05.04-.15.25l-.41,4.29"/>
  <path class="st8" d="M82.26,354.23s.28,4.35.55,4.48c-.14-.23.32.79.96.11,0,0,.05-.05.11-.27l-.29-4.3"/>
  <path class="st8" d="M85.21,354.06s.36,4.35.63,4.48c-.14-.23.32.79.96.11,0,0,.05-.05.11-.27l-.29-4.3"/>
  <path class="st8" d="M88.26,353.98s.28,4.12.55,4.24c-.14-.23.32.79.96.11,0,0,.05-.05.11-.27l-.29-4.3"/>
  <path class="st8" d="M91.35,353.72s.33,4.37.6,4.5c-.14-.23.32.79.96.11,0,0,.05-.05.11-.27l-.3-4.55"/>
  <path class="st0" d="M122.42,56.46c.16-.88,1-1.46,1.88-1.3s1.46,1,1.3,1.88-1,1.46-1.88,1.3-1.46-1-1.3-1.88"/>
  <circle class="st0" cx="132.04" cy="52.34" r=".86"/>
  <path class="st0" d="M130.81,51.97s-1.66.06-2.46,1.16-1.38,2.08-1.38,2.08c0,0-.44.7-.92.76l-.35.06.14.98,2.05-.21s.68-.07,1.11.45c0,0,.84,1.27,1.13,1.52,0,0,.7.63,1.16.97.54.39,1.49.39,1.49.39l-.06-.97s-.79-.12-1.1-.44c-.25-.25-.93-1.11-.93-1.11,0,0-.32-.63-.59-.82s-.14-.18-.14-.18l5.76-.44-.08-1.01-7.64.57s.96-1.79,1.36-2.06c0,0,1.13-.89,1.61-.75l-.17-.95h.02Z"/>
  <rect class="st1" x="132.74" y="58.56" width="2.54" height="2.14" rx=".23" ry=".23" transform="translate(-2.51 6) rotate(-2.54)"/>
  <line class="st13" x1="135.63" y1="56.21" x2="135.61" y2="55.16"/>
  <circle class="st0" cx="340.31" cy="371.66" r=".66"/>
  <circle class="st0" cx="343.53" cy="375.61" r=".54"/>
  <path class="st0" d="M343.58,374.84s-.09-.89-.8-1.23-1.33-.57-1.33-.57c0,0-.45-.18-.53-.45l-.07-.19-.54.18.33,1.15s.11.38-.14.68c0,0-.64.6-.75.8,0,0-.34.45-.44.76s.05.64.05.64l.54-.14s-.06-.23.02-.43.54-.64.54-.64c0,0,.33-.25.41-.42s.09-.1.09-.1l.77,2.87.56-.15-1.04-3.93s1.12.37,1.31.56c0,0,.44.51.48.79l.53-.19h0Z"/>
  <rect class="st2" x="339.32" y="376.93" width="1.05" height="1.25" rx=".23" ry=".23" transform="translate(-74.89 84.24) rotate(-12.74)"/>
  <path class="st0" d="M342.6,377.58l-.96.24s-.4.13-.07.51l.81.75s.09.06.12-.05.29-1.24.29-1.24c0,0,.04-.25-.18-.2h0Z"/>
  <line class="st8" x1="709.56" y1="89.67" x2="708.34" y2="93.92"/>
  <rect class="st3" x="705.47" y="90.49" width="6.94" height="2.46" rx=".63" ry=".63" transform="translate(429.95 749.87) rotate(-74.4)"/>
  <path class="st0" d="M135.4,54.56l.04,2.04s.07.86.97.37l1.87-1.27s.15-.15-.05-.25-2.34-1.15-2.34-1.15c0,0-.5-.2-.49.26h0Z"/>
  <path class="st12" d="M125.38,472.9s2.46-.18,3.23,2.55c0,0-2.72.09-3.23-2.55Z"/>
  <path class="st12" d="M124.11,478.32s-3.29-3.62-5.69.33c0,0-2.4-.75-3.26-1.84,0,0-.98-.75-.45-2.35,0,0,.8-1.36.06-2.75,0,0-.77-1.27.2-2.29,0,0,2.36-2.64,6.02-2.55,0,0,5.41.15,4.25,4.86,0,0-.76,1.03-.05,2.31,0,0,1.17,3-1.09,4.28h0Z"/>
  <rect class="st6" x="154.74" y="208.36" width="13.12" height="5.16" rx="1.46" ry="1.46" transform="translate(-64.5 350.69) rotate(-84.35)"/>
  <line class="st8" x1="161.73" y1="206.95" x2="161.05" y2="214.63"/>
</svg>